<svg width="240" height="175" viewBox="0 0 240 175" fill="none" xmlns="http://www.w3.org/2000/svg">
<g id="Frame" clip-path="url(#clip0_19_5)">
<path id="Vector" d="M59.3835 158.554C114.149 149.526 151.227 97.8116 142.199 43.0461C133.172 -11.7195 81.4573 -48.7974 26.6917 -39.7699C-28.0738 -30.7423 -65.1518 20.9722 -56.1242 75.7378C-47.0966 130.503 4.61792 167.581 59.3835 158.554Z" fill="url(#paint0_linear_19_5)" fill-opacity="0.51"/>
<path id="Vector_2" d="M134.762 111.67C189.527 102.642 226.605 50.9274 217.578 -3.83816C208.55 -58.6037 156.836 -95.6817 102.07 -86.6541C47.3046 -77.6265 10.2266 -25.912 19.2542 28.8536C28.2818 83.6191 79.9963 120.697 134.762 111.67Z" fill="url(#paint1_linear_19_5)" fill-opacity="0.51"/>
</g>
<defs>
<linearGradient id="paint0_linear_19_5" x1="26.6917" y1="-39.7699" x2="59.3835" y2="158.554" gradientUnits="userSpaceOnUse">
<stop offset="0.64" stop-color="#F56716"/>
<stop offset="1" stop-color="#F49864" stop-opacity="0.96"/>
</linearGradient>
<linearGradient id="paint1_linear_19_5" x1="102.07" y1="-86.6541" x2="134.762" y2="111.67" gradientUnits="userSpaceOnUse">
<stop offset="0.64" stop-color="#F56716"/>
<stop offset="1" stop-color="#F49864" stop-opacity="0.96"/>
</linearGradient>
<clipPath id="clip0_19_5">
<rect width="240" height="175" fill="white"/>
</clipPath>
</defs>
</svg>
