<svg width="61" height="61" viewBox="0 0 61 61" fill="none" xmlns="http://www.w3.org/2000/svg">
<g id="Frame" clip-path="url(#clip0_2_53)">
<g id="Group" opacity="0.94">
<path id="Vector" d="M59.6686 30.1329L47.8543 18.6409L47.9752 27.3807L24.6689 27.703L24.7494 33.5296L48.0558 33.2073L48.1766 41.9472M54.0838 47.6932C50.4827 52.6355 45.4179 56.3195 39.6067 58.2234C33.7956 60.1272 27.5327 60.1544 21.7053 58.301C15.8778 56.4477 10.7812 52.8077 7.13743 47.8968C3.49364 42.9859 1.48738 37.0531 1.40283 30.9386C1.31828 24.8241 3.15974 18.838 6.66636 13.8282C10.173 8.81846 15.167 5.039 20.9409 3.02522C26.7149 1.01144 32.9761 0.865434 38.8377 2.60787C44.6993 4.35031 49.864 7.89287 53.6004 12.7337L45.6471 12.8437C42.2421 9.92351 38.0669 8.04784 33.6223 7.44178C29.1778 6.83572 24.6528 7.52501 20.5903 9.42693C16.5278 11.3289 13.1003 14.3626 10.7193 18.1642C8.33827 21.9658 7.10475 26.3736 7.16677 30.8589C7.22879 35.3441 8.58371 39.7162 11.069 43.4505C13.5542 47.1847 17.0642 50.1226 21.1777 51.9115C25.2913 53.7003 29.8336 54.2642 34.2597 53.5355C38.6858 52.8068 42.8076 50.8164 46.1305 47.8032L54.0838 47.6932Z" fill="#7A38AD" fill-opacity="0.67"/>
<path id="Vector_2" d="M59.6686 30.1329L47.8543 18.6409L47.9752 27.3807L24.6689 27.703L24.7494 33.5296L48.0558 33.2073L48.1766 41.9472M54.0838 47.6932C50.4827 52.6355 45.4179 56.3195 39.6067 58.2234C33.7956 60.1272 27.5327 60.1544 21.7053 58.301C15.8778 56.4477 10.7812 52.8077 7.13743 47.8968C3.49364 42.9859 1.48738 37.0531 1.40283 30.9386C1.31828 24.8241 3.15974 18.838 6.66636 13.8282C10.173 8.81846 15.167 5.039 20.9409 3.02522C26.7149 1.01144 32.9761 0.865434 38.8377 2.60787C44.6993 4.35031 49.864 7.89287 53.6004 12.7337L45.6471 12.8437C42.2421 9.92351 38.0669 8.04784 33.6223 7.44178C29.1778 6.83572 24.6528 7.52501 20.5903 9.42693C16.5278 11.3289 13.1003 14.3626 10.7193 18.1642C8.33827 21.9658 7.10475 26.3736 7.16677 30.8589C7.22879 35.3441 8.58371 39.7162 11.069 43.4505C13.5542 47.1847 17.0642 50.1226 21.1777 51.9115C25.2912 53.7003 29.8336 54.2642 34.2597 53.5355C38.6858 52.8068 42.8076 50.8164 46.1305 47.8032L54.0838 47.6932Z" stroke="#7E6E8B" stroke-opacity="0.37" stroke-width="2"/>
</g>
<path id="Vector_3" d="M31 47C40.3888 47 48 39.6127 48 30.5C48 21.3873 40.3888 14 31 14C21.6112 14 14 21.3873 14 30.5C14 39.6127 21.6112 47 31 47Z" fill="#7964AC" fill-opacity="0.44"/>
</g>
<defs>
<clipPath id="clip0_2_53">
<rect width="61" height="61" fill="white"/>
</clipPath>
</defs>
</svg>
