<svg width="125" height="54" viewBox="0 0 125 54" fill="none" xmlns="http://www.w3.org/2000/svg">
<g id="Frame">
<path id="Vector" d="M7.19656 15.557L7.20124 27.418C7.20168 28.52 7.45335 29.3708 7.95625 29.9703C8.4785 30.5698 9.26161 30.8698 10.3056 30.8702C11.3496 30.8706 12.1325 30.5712 12.6543 29.9721C13.1953 29.3536 13.4657 28.5031 13.4652 27.4204L13.4606 15.5594L19.1446 15.5616L19.1492 27.4226C19.15 29.2979 18.7543 30.9024 17.9621 32.2361C17.17 33.5505 16.0877 34.5457 14.7153 35.2219C13.3623 35.8787 11.8544 36.2068 10.1917 36.2061C8.52905 36.2055 7.04025 35.8763 5.72532 35.2184C4.42972 34.5413 3.40466 33.5452 2.65015 32.2303C1.91496 30.9153 1.54699 29.3105 1.54624 27.4159L1.54156 15.5549L7.19656 15.557ZM29.0648 22.4263C30.6168 22.4269 31.849 22.9474 32.7614 23.9877C33.6738 25.0121 34.1303 26.4043 34.131 28.1643L34.1341 36.0123L29.4301 36.0105L29.4273 28.7865C29.427 28.0185 29.2267 27.4184 28.8266 26.9862C28.4264 26.5381 27.8903 26.3139 27.2183 26.3136C26.5143 26.3134 25.9624 26.5372 25.5626 26.985C25.1627 27.4169 24.963 28.0168 24.9633 28.7848L24.9661 36.0088L20.2621 36.007L20.2568 22.543L24.9608 22.5448L24.9616 24.4648C25.3773 23.8569 25.9372 23.3691 26.641 23.0014C27.3449 22.6177 28.1528 22.426 29.0648 22.4263ZM37.6455 21.3016C36.8135 21.3013 36.1414 21.077 35.6292 20.6288C35.133 20.1647 34.8848 19.5886 34.8845 18.9006C34.8842 18.1966 35.132 17.6127 35.6278 17.1488C36.1396 16.685 36.8115 16.4533 37.6435 16.4536C38.4595 16.4539 39.1156 16.6862 39.6118 17.1504C40.124 17.6146 40.3802 18.1987 40.3805 18.9027C40.3808 19.5907 40.125 20.1666 39.6132 20.6304C39.1174 21.0782 38.4615 21.3019 37.6455 21.3016ZM39.9739 22.5505L39.9793 36.0145L35.2753 36.0127L35.2699 22.5487L39.9739 22.5505ZM57.9823 16.2814L57.984 20.6494L52.72 20.6474L52.7261 36.0194L47.2381 36.0173L47.232 20.6453L42.024 20.6433L42.0223 16.2753L57.9823 16.2814ZM64.3807 16.2838L64.3885 36.0238L58.9005 36.0217L58.8927 16.2817L64.3807 16.2838Z" fill="black"/>
<path id="Vector_2" d="M7.19654 15.557L7.44654 15.5571L7.44644 15.3071L7.19644 15.307L7.19654 15.557ZM7.95623 29.9703L7.76471 30.1309L7.76778 30.1344L7.95623 29.9703ZM13.4606 15.5594L13.4605 15.3094L13.2105 15.3093L13.2106 15.5593L13.4606 15.5594ZM19.1446 15.5616L19.3946 15.5617L19.3945 15.3117L19.1445 15.3116L19.1446 15.5616ZM17.9621 32.2361L18.1763 32.3653L18.1771 32.3639L17.9621 32.2361ZM14.7153 35.2219L14.8246 35.4468L14.826 35.4461L14.7153 35.2219ZM5.7253 35.2184L5.60962 35.44L5.61359 35.442L5.7253 35.2184ZM2.65013 32.2303L2.43192 32.3521L2.43331 32.3546L2.65013 32.2303ZM1.54154 15.5549L1.54144 15.3049L1.29144 15.3048L1.29154 15.5548L1.54154 15.5549ZM6.94654 15.5569L6.95122 27.4179L7.45122 27.4181L7.44654 15.5571L6.94654 15.5569ZM6.95122 27.4179C6.95167 28.555 7.21117 29.471 7.76471 30.1309L8.14772 29.8097C7.69545 29.2706 7.45165 28.4851 7.45122 27.4181L6.95122 27.4179ZM7.76778 30.1344C8.35133 30.8043 9.21347 31.1198 10.3057 31.1202L10.3055 30.6202C9.3097 30.6198 8.60561 30.3353 8.14469 29.8062L7.76778 30.1344ZM10.3057 31.1202C11.3979 31.1206 12.2598 30.8058 12.8428 30.1363L12.466 29.8074C12.0055 30.3362 11.3013 30.6206 10.3055 30.6202L10.3057 31.1202ZM12.8428 30.1363C13.4349 29.4594 13.7157 28.5442 13.7152 27.4205L13.2152 27.4203C13.2157 28.4619 12.9561 29.2473 12.466 29.8074L12.8428 30.1363ZM13.7152 27.4205L13.7106 15.5595L13.2106 15.5593L13.2152 27.4203L13.7152 27.4205ZM13.4607 15.8094L19.1447 15.8116L19.1445 15.3116L13.4605 15.3094L13.4607 15.8094ZM18.8946 15.5615L18.8992 27.4225L19.3992 27.4227L19.3946 15.5617L18.8946 15.5615ZM18.8992 27.4225C18.9 29.2622 18.512 30.8206 17.7472 32.1083L18.1771 32.3639C18.9966 30.9842 19.4 29.3335 19.3992 27.4227L18.8992 27.4225ZM17.748 32.1069C16.9805 33.3805 15.9341 34.3427 14.6047 34.9976L14.826 35.4461C16.2414 34.7488 17.3595 33.7205 18.1763 32.3653L17.748 32.1069ZM14.606 34.9969C13.2904 35.6356 11.8205 35.9568 10.1916 35.9561L10.1918 36.4561C11.8883 36.4568 13.4341 36.1218 14.8246 35.4468L14.606 34.9969ZM10.1916 35.9561C8.56261 35.9555 7.11291 35.6332 5.83702 34.9949L5.61359 35.442C6.96755 36.1194 8.49544 36.4555 10.1918 36.4561L10.1916 35.9561ZM5.84097 34.9969C4.58929 34.3427 3.59863 33.3811 2.86694 32.106L2.43331 32.3546C3.21066 33.7093 4.2701 34.7399 5.60962 35.44L5.84097 34.9969ZM2.86831 32.1084C2.15869 30.8392 1.79696 29.2787 1.79622 27.4159L1.29622 27.4158C1.29699 29.3423 1.67117 30.9915 2.43192 32.3521L2.86831 32.1084ZM1.79622 27.4159L1.79154 15.5549L1.29154 15.5548L1.29622 27.4158L1.79622 27.4159ZM1.54164 15.8049L7.19664 15.807L7.19644 15.307L1.54144 15.3049L1.54164 15.8049ZM32.7614 23.9877L32.5735 24.1525L32.5748 24.1539L32.7614 23.9877ZM34.1341 36.0123L34.1342 36.2623L34.3842 36.2624L34.3841 36.0124L34.1341 36.0123ZM29.4301 36.0105L29.1801 36.0104L29.1802 36.2604L29.4302 36.2605L29.4301 36.0105ZM28.8266 26.9862L28.6401 27.1527L28.6432 27.156L28.8266 26.9862ZM25.5626 26.985L25.7461 27.155L25.7491 27.1516L25.5626 26.985ZM24.9661 36.0088L24.9662 36.2588L25.2162 36.2589L25.2161 36.0089L24.9661 36.0088ZM20.2621 36.007L20.0121 36.0069L20.0122 36.2569L20.2622 36.257L20.2621 36.007ZM20.2568 22.543L20.2567 22.293L20.0067 22.2929L20.0068 22.5429L20.2568 22.543ZM24.9608 22.5448L25.2108 22.5449L25.2107 22.2949L24.9607 22.2948L24.9608 22.5448ZM24.9616 24.4648L24.7116 24.4647L24.7119 25.2728L25.168 24.606L24.9616 24.4648ZM26.641 23.0014L26.7569 23.2231L26.7608 23.2209L26.641 23.0014ZM29.0649 22.6763C30.5547 22.6769 31.7147 23.1733 32.5735 24.1525L32.9493 23.823C31.9833 22.7215 30.6789 22.177 29.0647 22.1763L29.0649 22.6763ZM32.5748 24.1539C33.4359 25.1207 33.8804 26.4476 33.881 28.1642L34.381 28.1644C34.3803 26.3609 33.9117 24.9035 32.948 23.8215L32.5748 24.1539ZM33.881 28.1642L33.8841 36.0122L34.3841 36.0124L34.381 28.1644L33.881 28.1642ZM34.134 35.7623L29.43 35.7605L29.4302 36.2605L34.1342 36.2623L34.134 35.7623ZM29.6801 36.0106L29.6773 28.7866L29.1773 28.7864L29.1801 36.0104L29.6801 36.0106ZM29.6773 28.7866C29.677 27.9753 29.4647 27.3075 29.01 26.8165L28.6432 27.156C28.9888 27.5293 29.177 28.0616 29.1773 28.7864L29.6773 28.7866ZM29.013 26.8198C28.5594 26.3119 27.952 26.0639 27.2182 26.0636L27.2184 26.5636C27.8286 26.5639 28.2933 26.7643 28.6401 27.1527L29.013 26.8198ZM27.2182 26.0636C26.4565 26.0633 25.8315 26.3082 25.376 26.8184L25.7491 27.1516C26.0933 26.7661 26.5722 26.5634 27.2184 26.5636L27.2182 26.0636ZM25.3791 26.8151C24.9247 27.3058 24.713 27.9734 24.7133 28.7847L25.2133 28.7849C25.213 28.0601 25.4008 27.528 25.7461 27.155L25.3791 26.8151ZM24.7133 28.7847L24.7161 36.0087L25.2161 36.0089L25.2133 28.7849L24.7133 28.7847ZM24.966 35.7588L20.262 35.757L20.2622 36.257L24.9662 36.2588L24.966 35.7588ZM20.5121 36.0071L20.5068 22.5431L20.0068 22.5429L20.0121 36.0069L20.5121 36.0071ZM20.2569 22.793L24.9609 22.7948L24.9607 22.2948L20.2567 22.293L20.2569 22.793ZM24.7108 22.5447L24.7116 24.4647L25.2116 24.4649L25.2108 22.5449L24.7108 22.5447ZM25.168 24.606C25.5588 24.0346 26.0864 23.5734 26.7569 23.2231L26.5251 22.7798C25.7879 23.165 25.1959 23.6793 24.7552 24.3235L25.168 24.606ZM26.7608 23.2209C27.4232 22.8598 28.1889 22.676 29.0649 22.6763L29.0647 22.1763C28.1167 22.176 27.2666 22.3755 26.5212 22.7819L26.7608 23.2209ZM35.6292 20.6288L35.4584 20.8114L35.4646 20.8169L35.6292 20.6288ZM35.6278 17.1488L35.4598 16.9635L35.457 16.9662L35.6278 17.1488ZM39.6118 17.1504L39.4411 17.3329L39.444 17.3355L39.6118 17.1504ZM39.9739 22.5505L40.2239 22.5506V22.3006L39.9739 22.3005V22.5505ZM39.9793 36.0145L39.9794 36.2645L40.2294 36.2646L40.2293 36.0146L39.9793 36.0145ZM35.2753 36.0127L35.0253 36.0126L35.0254 36.2626L35.2754 36.2627L35.2753 36.0127ZM35.27 22.5487L35.2699 22.2987L35.0199 22.2986L35.02 22.5486L35.27 22.5487ZM37.6454 21.0516C36.8598 21.0513 36.2507 20.8407 35.7937 20.4408L35.4646 20.8169C36.032 21.3134 36.7671 21.5513 37.6456 21.5516L37.6454 21.0516ZM35.7999 20.4463C35.355 20.0301 35.1348 19.5205 35.1345 18.9007L34.6345 18.9005C34.6348 19.6566 34.9109 20.2993 35.4584 20.8114L35.7999 20.4463ZM35.1345 18.9007C35.1343 18.263 35.3554 17.7461 35.7987 17.3315L35.457 16.9662C34.9086 17.4792 34.6342 18.1301 34.6345 18.9005L35.1345 18.9007ZM35.7958 17.3342C36.2526 16.9202 36.8604 16.7033 37.6436 16.7036L37.6434 16.2036C36.7627 16.2033 36.0266 16.4499 35.4598 16.9635L35.7958 17.3342ZM37.6436 16.7036C38.4097 16.7039 39.0003 16.9205 39.4411 17.3329L39.7825 16.9679C39.231 16.4519 38.5093 16.2039 37.6434 16.2036L37.6436 16.7036ZM39.444 17.3355C39.9028 17.7513 40.1303 18.2676 40.1305 18.9026L40.6305 18.9027C40.6302 18.1297 40.3452 17.4778 39.7796 16.9652L39.444 17.3355ZM40.1305 18.9026C40.1308 19.5196 39.905 20.0284 39.4452 20.445L39.7808 20.8159C40.3447 20.3049 40.6308 19.6617 40.6305 18.9027L40.1305 18.9026ZM39.4452 20.445C39.005 20.8426 38.4138 21.0519 37.6454 21.0516L37.6456 21.5516C38.5091 21.5519 39.2295 21.3139 39.7808 20.8159L39.4452 20.445ZM39.7239 22.5504L39.7293 36.0144L40.2293 36.0146L40.2239 22.5506L39.7239 22.5504ZM39.9792 35.7645L35.2752 35.7627L35.2754 36.2627L39.9794 36.2645L39.9792 35.7645ZM35.5253 36.0128L35.52 22.5488L35.02 22.5486L35.0253 36.0126L35.5253 36.0128ZM35.27 22.7987L39.974 22.8005L39.9739 22.3005L35.2699 22.2987L35.27 22.7987ZM57.9823 16.2814L58.2323 16.2815L58.2322 16.0315L57.9822 16.0314L57.9823 16.2814ZM57.984 20.6494L57.9841 20.8994L58.2341 20.8995L58.234 20.6495L57.984 20.6494ZM52.72 20.6474L52.7199 20.3974L52.4699 20.3973L52.47 20.6473L52.72 20.6474ZM52.7261 36.0194L52.7262 36.2694H52.9762L52.9761 36.0194H52.7261ZM47.2381 36.0173L46.9881 36.0172L46.9882 36.2672L47.2382 36.2673L47.2381 36.0173ZM47.232 20.6453L47.482 20.6454L47.4819 20.3954L47.2319 20.3953L47.232 20.6453ZM42.024 20.6433L41.774 20.6432L41.7741 20.8932L42.0241 20.8933L42.024 20.6433ZM42.0223 16.2753L42.0222 16.0253L41.7722 16.0252L41.7723 16.2752L42.0223 16.2753ZM57.7323 16.2813L57.734 20.6493L58.234 20.6495L58.2323 16.2815L57.7323 16.2813ZM57.9839 20.3994L52.7199 20.3974L52.7201 20.8974L57.9841 20.8994L57.9839 20.3994ZM52.47 20.6473L52.4761 36.0193L52.9761 36.0194L52.97 20.6474L52.47 20.6473ZM52.726 35.7694L47.238 35.7673L47.2382 36.2673L52.7262 36.2694L52.726 35.7694ZM47.4881 36.0174L47.482 20.6454L46.982 20.6452L46.9881 36.0172L47.4881 36.0174ZM47.2319 20.3953L42.0239 20.3933L42.0241 20.8933L47.2321 20.8953L47.2319 20.3953ZM42.274 20.6434L42.2723 16.2754L41.7723 16.2752L41.774 20.6432L42.274 20.6434ZM42.0224 16.5253L57.9824 16.5314L57.9822 16.0314L42.0222 16.0253L42.0224 16.5253ZM64.3807 16.2838L64.6307 16.2839L64.6306 16.0339L64.3806 16.0338L64.3807 16.2838ZM64.3885 36.0238L64.3886 36.2738L64.6386 36.2739L64.6385 36.0239L64.3885 36.0238ZM58.9005 36.0217L58.6505 36.0216L58.6506 36.2716L58.9006 36.2717L58.9005 36.0217ZM58.8927 16.2817L58.8926 16.0317L58.6426 16.0316L58.6427 16.2816L58.8927 16.2817ZM64.1307 16.2837L64.1385 36.0237L64.6385 36.0239L64.6307 16.2839L64.1307 16.2837ZM64.3884 35.7738L58.9004 35.7717L58.9006 36.2717L64.3886 36.2738L64.3884 35.7738ZM59.1505 36.0218L59.1427 16.2818L58.6427 16.2816L58.6505 36.0216L59.1505 36.0218ZM58.8928 16.5317L64.3808 16.5338L64.3806 16.0338L58.8926 16.0317L58.8928 16.5317Z" fill="#7964AC"/>
<path id="Vector_3" d="M70.3567 21.8957C68.3681 21.8739 66.771 20.4892 66.7895 18.803C66.808 17.1167 68.4351 15.7674 70.4237 15.7892C72.4123 15.8111 74.0093 17.1957 73.9909 18.882C73.9724 20.5682 72.3453 21.9175 70.3567 21.8957Z" stroke="#7A38AD" stroke-opacity="0.9" stroke-width="1.5" stroke-linecap="round" stroke-linejoin="round"/>
<path id="Vector_4" d="M70.7779 8.74639C68.9423 8.72625 67.4681 7.44811 67.4851 5.89158C67.5022 4.33504 69.0041 3.08954 70.8397 3.10968C72.6754 3.12981 74.1496 4.40795 74.1325 5.96448C74.1155 7.52102 72.6135 8.76652 70.7779 8.74639Z" stroke="#7A38AD" stroke-opacity="0.9" stroke-width="1.5" stroke-linecap="round" stroke-linejoin="round"/>
<path id="Vector_5" d="M55.2673 8.57645C53.4317 8.55632 51.9575 7.27818 51.9745 5.72165C51.9916 4.16511 53.4935 2.91961 55.3291 2.93974C57.1648 2.95988 58.639 4.23802 58.6219 5.79455C58.6049 7.35109 57.1029 8.59659 55.2673 8.57645Z" stroke="#7A38AD" stroke-opacity="0.9" stroke-width="1.5" stroke-linecap="round" stroke-linejoin="round"/>
<g id="Group" opacity="0.4">
<path id="Vector_6" d="M70.7058 15.3223L70.7779 8.74609" stroke="#7A38AD" stroke-opacity="0.9" stroke-width="1.5" stroke-linecap="round" stroke-linejoin="round"/>
<path id="Vector_7" d="M70.5619 15.3205C70.0814 13.671 68.3221 12.4303 66.2281 12.4167L62.4279 12.3844C59.5251 12.362 57.0718 10.7566 56.1874 8.54834" stroke="#7A38AD" stroke-opacity="0.9" stroke-width="1.5" stroke-linecap="round" stroke-linejoin="round"/>
</g>
<path id="Vector_8" d="M69.7689 35V27.3636H70.9024V28.517H70.9819C71.1211 28.1392 71.373 27.8326 71.7376 27.5973C72.1022 27.362 72.5132 27.2443 72.9706 27.2443C73.0567 27.2443 73.1645 27.246 73.2937 27.2493C73.423 27.2526 73.5208 27.2576 73.587 27.2642V28.4574C73.5473 28.4474 73.4561 28.4325 73.3136 28.4126C73.1744 28.3894 73.0269 28.3778 72.8711 28.3778C72.4999 28.3778 72.1685 28.4557 71.8768 28.6115C71.5885 28.764 71.3598 28.9761 71.1907 29.2479C71.025 29.5163 70.9422 29.8229 70.9422 30.1676V35H69.7689ZM77.6671 35.1591C76.9313 35.1591 76.2966 34.9967 75.763 34.6719C75.2327 34.3438 74.8234 33.8864 74.535 33.2997C74.25 32.7098 74.1075 32.0237 74.1075 31.2415C74.1075 30.4593 74.25 29.7699 74.535 29.1733C74.8234 28.5734 75.2244 28.1061 75.7382 27.7713C76.2552 27.4332 76.8584 27.2642 77.5478 27.2642C77.9455 27.2642 78.3383 27.3305 78.7261 27.4631C79.1139 27.5956 79.4668 27.8111 79.785 28.1094C80.1032 28.4044 80.3568 28.7955 80.5457 29.2827C80.7346 29.7699 80.8291 30.3698 80.8291 31.0824V31.5795H74.9427V30.5653H79.6359C79.6359 30.1345 79.5497 29.75 79.3774 29.4119C79.2083 29.0739 78.9664 28.8071 78.6515 28.6115C78.34 28.416 77.9721 28.3182 77.5478 28.3182C77.0805 28.3182 76.6761 28.4342 76.3347 28.6662C75.9967 28.8949 75.7365 29.1932 75.5542 29.5611C75.3719 29.929 75.2808 30.3234 75.2808 30.7443V31.4205C75.2808 31.9972 75.3802 32.486 75.5791 32.8871C75.7812 33.2848 76.0613 33.5881 76.4193 33.7969C76.7772 34.0024 77.1932 34.1051 77.6671 34.1051C77.9754 34.1051 78.2538 34.062 78.5024 33.9759C78.7543 33.8864 78.9713 33.7538 79.1536 33.5781C79.3359 33.3991 79.4768 33.1771 79.5762 32.9119L80.7097 33.2301C80.5904 33.6146 80.3899 33.9527 80.1082 34.2443C79.8265 34.5327 79.4784 34.758 79.0641 34.9205C78.6498 35.0795 78.1842 35.1591 77.6671 35.1591ZM87.743 29.0739L86.689 29.3722C86.6227 29.1965 86.5249 29.0258 86.3957 28.8601C86.2697 28.6911 86.0974 28.5518 85.8786 28.4425C85.6599 28.3331 85.3798 28.2784 85.0384 28.2784C84.5711 28.2784 84.1816 28.3861 83.8701 28.6016C83.5618 28.8137 83.4077 29.0838 83.4077 29.4119C83.4077 29.7036 83.5138 29.9339 83.7259 30.103C83.938 30.272 84.2695 30.4129 84.7202 30.5256L85.8538 30.804C86.5365 30.9697 87.0453 31.2232 87.38 31.5646C87.7148 31.9027 87.8822 32.3385 87.8822 32.8722C87.8822 33.3097 87.7562 33.7008 87.5043 34.0455C87.2557 34.3902 86.9077 34.6619 86.4603 34.8608C86.0128 35.0597 85.4925 35.1591 84.8992 35.1591C84.1203 35.1591 83.4757 34.9901 82.9653 34.652C82.4548 34.3139 82.1317 33.8201 81.9958 33.1705L83.1094 32.892C83.2155 33.303 83.416 33.6113 83.711 33.8168C84.0093 34.0223 84.3987 34.125 84.8793 34.125C85.4262 34.125 85.8604 34.009 86.1819 33.777C86.5067 33.5417 86.6691 33.2599 86.6691 32.9318C86.6691 32.6667 86.5763 32.4446 86.3907 32.2656C86.2051 32.0833 85.92 31.9474 85.5356 31.858L84.2628 31.5597C83.5635 31.3939 83.0498 31.1371 82.7216 30.7891C82.3968 30.4377 82.2344 29.9986 82.2344 29.4716C82.2344 29.0407 82.3554 28.6596 82.5974 28.3281C82.8426 27.9967 83.1757 27.7365 83.5966 27.5476C84.0209 27.3587 84.5015 27.2642 85.0384 27.2642C85.7941 27.2642 86.3874 27.4299 86.8182 27.7614C87.2524 28.0928 87.5607 28.5303 87.743 29.0739ZM92.4706 35.1591C91.7812 35.1591 91.1763 34.995 90.656 34.6669C90.1389 34.3388 89.7346 33.8797 89.4429 33.2898C89.1545 32.6998 89.0104 32.0104 89.0104 31.2216C89.0104 30.4261 89.1545 29.7318 89.4429 29.1385C89.7346 28.5452 90.1389 28.0845 90.656 27.7564C91.1763 27.4283 91.7812 27.2642 92.4706 27.2642C93.16 27.2642 93.7632 27.4283 94.2802 27.7564C94.8006 28.0845 95.205 28.5452 95.4933 29.1385C95.785 29.7318 95.9308 30.4261 95.9308 31.2216C95.9308 32.0104 95.785 32.6998 95.4933 33.2898C95.205 33.8797 94.8006 34.3388 94.2802 34.6669C93.7632 34.995 93.16 35.1591 92.4706 35.1591ZM92.4706 34.1051C92.9943 34.1051 93.4251 33.9709 93.7632 33.7024C94.1013 33.4339 94.3515 33.081 94.5139 32.6435C94.6763 32.206 94.7575 31.732 94.7575 31.2216C94.7575 30.7112 94.6763 30.2356 94.5139 29.7947C94.3515 29.3539 94.1013 28.9976 93.7632 28.7259C93.4251 28.4541 92.9943 28.3182 92.4706 28.3182C91.9469 28.3182 91.516 28.4541 91.178 28.7259C90.8399 28.9976 90.5897 29.3539 90.4273 29.7947C90.2649 30.2356 90.1837 30.7112 90.1837 31.2216C90.1837 31.732 90.2649 32.206 90.4273 32.6435C90.5897 33.081 90.8399 33.4339 91.178 33.7024C91.516 33.9709 91.9469 34.1051 92.4706 34.1051ZM102.254 31.8778V27.3636H103.428V35H102.254V33.7074H102.175C101.996 34.0952 101.717 34.425 101.34 34.6967C100.962 34.9652 100.484 35.0994 99.9077 35.0994C99.4305 35.0994 99.0062 34.995 98.635 34.7862C98.2638 34.5741 97.9721 34.2559 97.76 33.8317C97.5479 33.4041 97.4418 32.8655 97.4418 32.2159V27.3636H98.6151V32.1364C98.6151 32.6932 98.7709 33.1373 99.0825 33.4688C99.3973 33.8002 99.7984 33.9659 100.286 33.9659C100.577 33.9659 100.874 33.8913 101.175 33.7422C101.48 33.593 101.736 33.3643 101.941 33.0561C102.15 32.7479 102.254 32.3551 102.254 31.8778ZM105.297 35V27.3636H106.43V28.517H106.51C106.649 28.1392 106.901 27.8326 107.265 27.5973C107.63 27.362 108.041 27.2443 108.498 27.2443C108.584 27.2443 108.692 27.246 108.821 27.2493C108.951 27.2526 109.048 27.2576 109.115 27.2642V28.4574C109.075 28.4474 108.984 28.4325 108.841 28.4126C108.702 28.3894 108.555 28.3778 108.399 28.3778C108.028 28.3778 107.696 28.4557 107.405 28.6115C107.116 28.764 106.888 28.9761 106.718 29.2479C106.553 29.5163 106.47 29.8229 106.47 30.1676V35H105.297ZM113.095 35.1591C112.38 35.1591 111.763 34.9901 111.246 34.652C110.729 34.3139 110.331 33.8482 110.053 33.255C109.774 32.6617 109.635 31.9839 109.635 31.2216C109.635 30.446 109.778 29.7616 110.063 29.1683C110.351 28.5717 110.752 28.1061 111.266 27.7713C111.783 27.4332 112.386 27.2642 113.076 27.2642C113.612 27.2642 114.096 27.3636 114.527 27.5625C114.958 27.7614 115.311 28.0398 115.586 28.3977C115.861 28.7557 116.032 29.1733 116.098 29.6506H114.925C114.835 29.3026 114.637 28.9943 114.328 28.7259C114.023 28.4541 113.612 28.3182 113.095 28.3182C112.638 28.3182 112.237 28.4375 111.892 28.6761C111.551 28.9115 111.284 29.2446 111.092 29.6754C110.903 30.103 110.809 30.6051 110.809 31.1818C110.809 31.7718 110.901 32.2855 111.087 32.723C111.276 33.1605 111.541 33.5002 111.882 33.7422C112.227 33.9841 112.631 34.1051 113.095 34.1051C113.4 34.1051 113.677 34.0521 113.926 33.946C114.174 33.84 114.385 33.6875 114.557 33.4886C114.729 33.2898 114.852 33.0511 114.925 32.7727H116.098C116.032 33.2235 115.868 33.6295 115.606 33.9908C115.348 34.3487 115.005 34.6338 114.577 34.8459C114.153 35.0547 113.659 35.1591 113.095 35.1591ZM120.735 35.1591C119.999 35.1591 119.365 34.9967 118.831 34.6719C118.301 34.3438 117.891 33.8864 117.603 33.2997C117.318 32.7098 117.176 32.0237 117.176 31.2415C117.176 30.4593 117.318 29.7699 117.603 29.1733C117.891 28.5734 118.292 28.1061 118.806 27.7713C119.323 27.4332 119.926 27.2642 120.616 27.2642C121.014 27.2642 121.406 27.3305 121.794 27.4631C122.182 27.5956 122.535 27.8111 122.853 28.1094C123.171 28.4044 123.425 28.7955 123.614 29.2827C123.803 29.7699 123.897 30.3698 123.897 31.0824V31.5795H118.011V30.5653H122.704C122.704 30.1345 122.618 29.75 122.445 29.4119C122.276 29.0739 122.034 28.8071 121.72 28.6115C121.408 28.416 121.04 28.3182 120.616 28.3182C120.149 28.3182 119.744 28.4342 119.403 28.6662C119.065 28.8949 118.805 29.1932 118.622 29.5611C118.44 29.929 118.349 30.3234 118.349 30.7443V31.4205C118.349 31.9972 118.448 32.486 118.647 32.8871C118.849 33.2848 119.129 33.5881 119.487 33.7969C119.845 34.0024 120.261 34.1051 120.735 34.1051C121.043 34.1051 121.322 34.062 121.57 33.9759C121.822 33.8864 122.039 33.7538 122.222 33.5781C122.404 33.3991 122.545 33.1771 122.644 32.9119L123.778 33.2301C123.658 33.6146 123.458 33.9527 123.176 34.2443C122.895 34.5327 122.546 34.758 122.132 34.9205C121.718 35.0795 121.252 35.1591 120.735 35.1591Z" fill="black"/>
</g>
</svg>
