<svg width="270" height="59" viewBox="0 0 270 59" fill="none" xmlns="http://www.w3.org/2000/svg">
<g id="Frame">
<path id="Vector" d="M250 0H23C11.9543 0 3 8.9543 3 20V39C3 50.0457 11.9543 59 23 59H250C261.046 59 270 50.0457 270 39V20C270 8.9543 261.046 0 250 0Z" fill="#7A38AD" fill-opacity="0.6"/>
<path id="Vector_2" d="M102.777 35.156H108.153V38.324H98.6725V21.476H102.777V35.156ZM118.558 38.492C116.974 38.492 115.518 38.124 114.19 37.388C112.878 36.652 111.83 35.628 111.046 34.316C110.278 32.988 109.894 31.5 109.894 29.852C109.894 28.204 110.278 26.724 111.046 25.412C111.83 24.1 112.878 23.076 114.19 22.34C115.518 21.604 116.974 21.236 118.558 21.236C120.142 21.236 121.59 21.604 122.902 22.34C124.23 23.076 125.27 24.1 126.022 25.412C126.79 26.724 127.174 28.204 127.174 29.852C127.174 31.5 126.79 32.988 126.022 34.316C125.254 35.628 124.214 36.652 122.902 37.388C121.59 38.124 120.142 38.492 118.558 38.492ZM118.558 34.748C119.902 34.748 120.974 34.3 121.774 33.404C122.59 32.508 122.998 31.324 122.998 29.852C122.998 28.364 122.59 27.18 121.774 26.3C120.974 25.404 119.902 24.956 118.558 24.956C117.198 24.956 116.11 25.396 115.294 26.276C114.494 27.156 114.094 28.348 114.094 29.852C114.094 31.34 114.494 32.532 115.294 33.428C116.11 34.308 117.198 34.748 118.558 34.748ZM141.121 26.804C140.817 26.244 140.377 25.82 139.801 25.532C139.241 25.228 138.577 25.076 137.809 25.076C136.481 25.076 135.417 25.516 134.617 26.396C133.817 27.26 133.417 28.42 133.417 29.876C133.417 31.428 133.833 32.644 134.665 33.524C135.513 34.388 136.673 34.82 138.145 34.82C139.153 34.82 140.001 34.564 140.689 34.052C141.393 33.54 141.905 32.804 142.225 31.844H137.017V28.82H145.945V32.636C145.641 33.66 145.121 34.612 144.385 35.492C143.665 36.372 142.745 37.084 141.625 37.628C140.505 38.172 139.241 38.444 137.833 38.444C136.169 38.444 134.681 38.084 133.369 37.364C132.073 36.628 131.057 35.612 130.321 34.316C129.601 33.02 129.241 31.54 129.241 29.876C129.241 28.212 129.601 26.732 130.321 25.436C131.057 24.124 132.073 23.108 133.369 22.388C134.665 21.652 136.145 21.284 137.809 21.284C139.825 21.284 141.521 21.772 142.897 22.748C144.289 23.724 145.209 25.076 145.657 26.804H141.121ZM152.802 21.476V38.324H148.698V21.476H152.802ZM171.329 38.324H167.225L160.361 27.932V38.324H156.257V21.476H160.361L167.225 31.916V21.476H171.329V38.324Z" fill="white"/>
</g>
</svg>
