<svg width="194" height="57" viewBox="0 0 194 57" fill="none" xmlns="http://www.w3.org/2000/svg">
<g id="Frame">
<path id="Vector" d="M174 0H22.1556C11.1099 0 2.15556 8.9543 2.15556 20V37C2.15556 48.0457 11.1099 57 22.1556 57H174C185.045 57 194 48.0457 194 37V20C194 8.9543 185.045 0 174 0Z" fill="#7A38AD" fill-opacity="0.6"/>
<path id="Vector_2" d="M87.7037 37.3792C86.1197 37.3792 84.6637 37.0112 83.3357 36.2752C82.0077 35.5232 80.9517 34.4912 80.1677 33.1792C79.3997 31.8512 79.0157 30.3552 79.0157 28.6912C79.0157 27.0272 79.3997 25.5392 80.1677 24.2272C80.9517 22.8992 82.0077 21.8672 83.3357 21.1312C84.6637 20.3952 86.1197 20.0272 87.7037 20.0272C89.3037 20.0272 90.7597 20.3952 92.0717 21.1312C93.3997 21.8672 94.4477 22.8992 95.2157 24.2272C95.9837 25.5392 96.3677 27.0272 96.3677 28.6912C96.3677 30.3552 95.9837 31.8512 95.2157 33.1792C94.4477 34.4912 93.3997 35.5232 92.0717 36.2752C90.7437 37.0112 89.2877 37.3792 87.7037 37.3792ZM87.7037 33.0112C88.9037 33.0112 89.8477 32.6192 90.5357 31.8352C91.2397 31.0512 91.5917 30.0032 91.5917 28.6912C91.5917 27.3472 91.2397 26.2912 90.5357 25.5232C89.8477 24.7392 88.9037 24.3472 87.7037 24.3472C86.4877 24.3472 85.5357 24.7392 84.8477 25.5232C84.1597 26.2912 83.8157 27.3472 83.8157 28.6912C83.8157 30.0192 84.1597 31.0752 84.8477 31.8592C85.5357 32.6272 86.4877 33.0112 87.7037 33.0112ZM109.69 37.2112L104.386 29.7952V37.2112H99.6823V20.2912H104.386V27.5872L109.642 20.2912H115.066L108.85 28.4992L115.378 37.2112H109.69Z" fill="white"/>
</g>
</svg>
