<svg width="192" height="40" viewBox="0 0 192 40" fill="none" xmlns="http://www.w3.org/2000/svg">
<g id="Frame" clip-path="url(#clip0_2_87)">
<path id="Vector" d="M180 0H14.1333C7.50588 0 2.1333 5.37258 2.1333 12V28C2.1333 34.6274 7.50588 40 14.1333 40H180C186.628 40 192 34.6274 192 28V12C192 5.37258 186.628 0 180 0Z" fill="#7A38AD" fill-opacity="0.6"/>
<path id="Vector_2" d="M37.7188 24.1834H33.2188L32.5348 26.2534H28.8268L33.4528 13.5634H37.5208L42.1288 26.2534H38.4028L37.7188 24.1834ZM36.8368 21.4834L35.4688 17.3794L34.1188 21.4834H36.8368ZM43.6027 21.1954C43.6027 20.1514 43.7887 19.2394 44.1607 18.4594C44.5447 17.6794 45.0667 17.0794 45.7267 16.6594C46.3867 16.2394 47.1187 16.0294 47.9227 16.0294C48.5707 16.0294 49.1467 16.1674 49.6507 16.4434C50.1667 16.7074 50.5687 17.0734 50.8567 17.5414V12.9334H54.4027V26.2534H50.8567V24.8494C50.5807 25.3174 50.1907 25.6894 49.6867 25.9654C49.1827 26.2414 48.5887 26.3794 47.9047 26.3794C47.1007 26.3794 46.3687 26.1694 45.7087 25.7494C45.0607 25.3294 44.5447 24.7294 44.1607 23.9494C43.7887 23.1574 43.6027 22.2394 43.6027 21.1954ZM50.8747 21.1954C50.8747 20.5474 50.6947 20.0374 50.3347 19.6654C49.9867 19.2934 49.5547 19.1074 49.0387 19.1074C48.5107 19.1074 48.0727 19.2934 47.7247 19.6654C47.3767 20.0254 47.2027 20.5354 47.2027 21.1954C47.2027 21.8434 47.3767 22.3594 47.7247 22.7434C48.0727 23.1154 48.5107 23.3014 49.0387 23.3014C49.5547 23.3014 49.9867 23.1154 50.3347 22.7434C50.6947 22.3714 50.8747 21.8554 50.8747 21.1954ZM56.7371 21.1954C56.7371 20.1514 56.9231 19.2394 57.2951 18.4594C57.6791 17.6794 58.2011 17.0794 58.8611 16.6594C59.5211 16.2394 60.2531 16.0294 61.0571 16.0294C61.7051 16.0294 62.2811 16.1674 62.7851 16.4434C63.3011 16.7074 63.7031 17.0734 63.9911 17.5414V12.9334H67.5371V26.2534H63.9911V24.8494C63.7151 25.3174 63.3251 25.6894 62.8211 25.9654C62.3171 26.2414 61.7231 26.3794 61.0391 26.3794C60.2351 26.3794 59.5031 26.1694 58.8431 25.7494C58.1951 25.3294 57.6791 24.7294 57.2951 23.9494C56.9231 23.1574 56.7371 22.2394 56.7371 21.1954ZM64.0091 21.1954C64.0091 20.5474 63.8291 20.0374 63.4691 19.6654C63.1211 19.2934 62.6891 19.1074 62.1731 19.1074C61.6451 19.1074 61.2071 19.2934 60.8591 19.6654C60.5111 20.0254 60.3371 20.5354 60.3371 21.1954C60.3371 21.8434 60.5111 22.3594 60.8591 22.7434C61.2071 23.1154 61.6451 23.3014 62.1731 23.3014C62.6891 23.3014 63.1211 23.1154 63.4691 22.7434C63.8291 22.3714 64.0091 21.8554 64.0091 21.1954ZM78.3208 17.9374C78.7168 17.3614 79.1968 16.9054 79.7608 16.5694C80.3248 16.2334 80.9308 16.0654 81.5788 16.0654V19.8274H80.5888C79.8208 19.8274 79.2508 19.9774 78.8788 20.2774C78.5068 20.5774 78.3208 21.0994 78.3208 21.8434V26.2534H74.7928V16.1554H78.3208V17.9374ZM93.3916 21.0874C93.3916 21.3634 93.3736 21.6394 93.3376 21.9154H86.6596C86.6956 22.4674 86.8456 22.8814 87.1096 23.1574C87.3856 23.4214 87.7336 23.5534 88.1536 23.5534C88.7416 23.5534 89.1616 23.2894 89.4136 22.7614H93.1756C93.0196 23.4574 92.7136 24.0814 92.2576 24.6334C91.8136 25.1734 91.2496 25.5994 90.5656 25.9114C89.8816 26.2234 89.1256 26.3794 88.2976 26.3794C87.3016 26.3794 86.4136 26.1694 85.6336 25.7494C84.8656 25.3294 84.2595 24.7294 83.8155 23.9494C83.3835 23.1694 83.1675 22.2514 83.1675 21.1954C83.1675 20.1394 83.3835 19.2274 83.8155 18.4594C84.2475 17.6794 84.8476 17.0794 85.6156 16.6594C86.3956 16.2394 87.2896 16.0294 88.2976 16.0294C89.2936 16.0294 90.1756 16.2334 90.9436 16.6414C91.7116 17.0494 92.3116 17.6374 92.7436 18.4054C93.1756 19.1614 93.3916 20.0554 93.3916 21.0874ZM89.7916 20.2054C89.7916 19.7734 89.6476 19.4374 89.3596 19.1974C89.0716 18.9454 88.7116 18.8194 88.2796 18.8194C87.8476 18.8194 87.4936 18.9394 87.2176 19.1794C86.9416 19.4074 86.7616 19.7494 86.6776 20.2054H89.7916ZM100.037 26.3794C99.1253 26.3794 98.3093 26.2294 97.5893 25.9294C96.8813 25.6174 96.3173 25.1974 95.8973 24.6694C95.4893 24.1294 95.2613 23.5234 95.2133 22.8514H98.6333C98.6813 23.1754 98.8313 23.4274 99.0833 23.6074C99.3353 23.7874 99.6473 23.8774 100.019 23.8774C100.307 23.8774 100.535 23.8174 100.703 23.6974C100.871 23.5774 100.955 23.4214 100.955 23.2294C100.955 22.9774 100.817 22.7914 100.541 22.6714C100.265 22.5514 99.8093 22.4194 99.1733 22.2754C98.4533 22.1314 97.8533 21.9694 97.3733 21.7894C96.8933 21.6094 96.4733 21.3154 96.1133 20.9074C95.7653 20.4994 95.5913 19.9474 95.5913 19.2514C95.5913 18.6514 95.7533 18.1114 96.0773 17.6314C96.4013 17.1394 96.8753 16.7494 97.4993 16.4614C98.1353 16.1734 98.8973 16.0294 99.7853 16.0294C101.105 16.0294 102.143 16.3534 102.899 17.0014C103.655 17.6494 104.093 18.5014 104.213 19.5574H101.027C100.967 19.2334 100.823 18.9874 100.595 18.8194C100.379 18.6394 100.085 18.5494 99.7133 18.5494C99.4253 18.5494 99.2033 18.6034 99.0473 18.7114C98.9033 18.8194 98.8313 18.9694 98.8313 19.1614C98.8313 19.4014 98.9693 19.5874 99.2453 19.7194C99.5213 19.8394 99.9653 19.9654 100.577 20.0974C101.309 20.2534 101.915 20.4274 102.395 20.6194C102.887 20.8114 103.313 21.1234 103.673 21.5554C104.045 21.9754 104.231 22.5514 104.231 23.2834C104.231 23.8714 104.057 24.3994 103.709 24.8674C103.373 25.3354 102.887 25.7074 102.251 25.9834C101.627 26.2474 100.889 26.3794 100.037 26.3794ZM111.564 26.3794C110.556 26.3794 109.65 26.1694 108.846 25.7494C108.054 25.3294 107.43 24.7294 106.974 23.9494C106.518 23.1694 106.29 22.2514 106.29 21.1954C106.29 20.1514 106.518 19.2394 106.974 18.4594C107.442 17.6794 108.072 17.0794 108.864 16.6594C109.668 16.2394 110.574 16.0294 111.582 16.0294C112.59 16.0294 113.49 16.2394 114.282 16.6594C115.086 17.0794 115.716 17.6794 116.172 18.4594C116.64 19.2394 116.874 20.1514 116.874 21.1954C116.874 22.2394 116.64 23.1574 116.172 23.9494C115.716 24.7294 115.086 25.3294 114.282 25.7494C113.478 26.1694 112.572 26.3794 111.564 26.3794ZM111.564 23.3194C112.056 23.3194 112.464 23.1394 112.788 22.7794C113.124 22.4074 113.292 21.8794 113.292 21.1954C113.292 20.5114 113.124 19.9894 112.788 19.6294C112.464 19.2694 112.062 19.0894 111.582 19.0894C111.102 19.0894 110.7 19.2694 110.376 19.6294C110.052 19.9894 109.89 20.5114 109.89 21.1954C109.89 21.8914 110.046 22.4194 110.358 22.7794C110.67 23.1394 111.072 23.3194 111.564 23.3194ZM129.541 16.1554V26.2534H125.995V24.8134C125.695 25.2694 125.281 25.6414 124.753 25.9294C124.225 26.2054 123.619 26.3434 122.935 26.3434C121.759 26.3434 120.829 25.9594 120.145 25.1914C119.473 24.4114 119.137 23.3554 119.137 22.0234V16.1554H122.647V21.5734C122.647 22.1494 122.797 22.6054 123.097 22.9414C123.409 23.2654 123.817 23.4274 124.321 23.4274C124.837 23.4274 125.245 23.2654 125.545 22.9414C125.845 22.6054 125.995 22.1494 125.995 21.5734V16.1554H129.541ZM135.977 17.9374C136.373 17.3614 136.853 16.9054 137.417 16.5694C137.981 16.2334 138.587 16.0654 139.235 16.0654V19.8274H138.245C137.477 19.8274 136.907 19.9774 136.535 20.2774C136.163 20.5774 135.977 21.0994 135.977 21.8434V26.2534H132.449V16.1554H135.977V17.9374ZM140.824 21.1954C140.824 20.1514 141.04 19.2394 141.472 18.4594C141.904 17.6794 142.504 17.0794 143.272 16.6594C144.052 16.2394 144.94 16.0294 145.936 16.0294C147.22 16.0294 148.3 16.3834 149.176 17.0914C150.052 17.7874 150.616 18.7654 150.868 20.0254H147.124C146.908 19.3654 146.488 19.0354 145.864 19.0354C145.42 19.0354 145.066 19.2214 144.802 19.5934C144.55 19.9534 144.424 20.4874 144.424 21.1954C144.424 21.9034 144.55 22.4434 144.802 22.8154C145.066 23.1874 145.42 23.3734 145.864 23.3734C146.5 23.3734 146.92 23.0434 147.124 22.3834H150.868C150.616 23.6314 150.052 24.6094 149.176 25.3174C148.3 26.0254 147.22 26.3794 145.936 26.3794C144.94 26.3794 144.052 26.1694 143.272 25.7494C142.504 25.3294 141.904 24.7294 141.472 23.9494C141.04 23.1694 140.824 22.2514 140.824 21.1954ZM162.881 21.0874C162.881 21.3634 162.863 21.6394 162.827 21.9154H156.149C156.185 22.4674 156.335 22.8814 156.599 23.1574C156.875 23.4214 157.223 23.5534 157.643 23.5534C158.231 23.5534 158.651 23.2894 158.903 22.7614H162.665C162.509 23.4574 162.203 24.0814 161.747 24.6334C161.303 25.1734 160.739 25.5994 160.055 25.9114C159.371 26.2234 158.615 26.3794 157.787 26.3794C156.791 26.3794 155.903 26.1694 155.123 25.7494C154.355 25.3294 153.749 24.7294 153.305 23.9494C152.873 23.1694 152.657 22.2514 152.657 21.1954C152.657 20.1394 152.873 19.2274 153.305 18.4594C153.737 17.6794 154.337 17.0794 155.105 16.6594C155.885 16.2394 156.779 16.0294 157.787 16.0294C158.783 16.0294 159.665 16.2334 160.433 16.6414C161.201 17.0494 161.801 17.6374 162.233 18.4054C162.665 19.1614 162.881 20.0554 162.881 21.0874ZM159.281 20.2054C159.281 19.7734 159.137 19.4374 158.849 19.1974C158.561 18.9454 158.201 18.8194 157.769 18.8194C157.337 18.8194 156.983 18.9394 156.707 19.1794C156.431 19.4074 156.251 19.7494 156.167 20.2054H159.281Z" fill="white"/>
</g>
<defs>
<clipPath id="clip0_2_87">
<rect width="192" height="40" fill="white"/>
</clipPath>
</defs>
</svg>
