<svg width="56" height="54" viewBox="0 0 56 54" fill="none" xmlns="http://www.w3.org/2000/svg">
<g id="Frame" clip-path="url(#clip0_2_39)">
<path id="Vector" fill-rule="evenodd" clip-rule="evenodd" d="M49.0428 26.8157C49.0428 38.1856 39.5353 47.6314 27.5214 47.6314C15.5075 47.6314 6 38.1856 6 26.8157C6 15.4458 15.5075 6 27.5214 6C39.5353 6 49.0428 15.4458 49.0428 26.8157ZM54.0428 26.8157C54.0428 41.0733 42.1687 52.6314 27.5214 52.6314C12.874 52.6314 1 41.0733 1 26.8157C1 12.5581 12.874 1 27.5214 1C42.1687 1 54.0428 12.5581 54.0428 26.8157ZM23.4273 35.2179C23.2496 35.0449 23.1039 34.8527 22.99 34.6481C22.6584 34.5284 22.3473 34.3389 22.0809 34.0795L14.4229 26.6253C13.4335 25.6622 13.4335 24.1008 14.4229 23.1377C15.4122 22.1747 17.0163 22.1747 18.0057 23.1377L25.1303 30.0727L37.3477 18.1804C38.337 17.2173 39.9411 17.2173 40.9305 18.1804C41.9199 19.1434 41.9199 20.7049 40.9305 21.6679L27.0102 35.2179C26.0208 36.1809 24.4167 36.1809 23.4273 35.2179Z" fill="#7A38AD" fill-opacity="0.53"/>
<g id="Mask group">
<mask id="mask0_2_39" style="mask-type:luminance" maskUnits="userSpaceOnUse" x="0" y="0" width="56" height="54">
<g id="Group">
<path id="Vector_2" d="M56 0H0V54H56V0Z" fill="white"/>
<path id="Vector_3" fill-rule="evenodd" clip-rule="evenodd" d="M49.0428 26.8157C49.0428 38.1856 39.5353 47.6314 27.5214 47.6314C15.5075 47.6314 6 38.1856 6 26.8157C6 15.4458 15.5075 6 27.5214 6C39.5353 6 49.0428 15.4458 49.0428 26.8157ZM54.0428 26.8157C54.0428 41.0733 42.1687 52.6314 27.5214 52.6314C12.874 52.6314 1 41.0733 1 26.8157C1 12.5581 12.874 1 27.5214 1C42.1687 1 54.0428 12.5581 54.0428 26.8157ZM23.4273 35.2179C23.2496 35.0449 23.1039 34.8527 22.99 34.6481C22.6584 34.5284 22.3473 34.3389 22.0809 34.0795L14.4229 26.6253C13.4335 25.6622 13.4335 24.1008 14.4229 23.1377C15.4122 22.1747 17.0163 22.1747 18.0057 23.1377L25.1303 30.0727L37.3477 18.1804C38.337 17.2173 39.9411 17.2173 40.9305 18.1804C41.9199 19.1434 41.9199 20.7049 40.9305 21.6679L27.0102 35.2179C26.0208 36.1809 24.4167 36.1809 23.4273 35.2179Z" fill="black"/>
</g>
</mask>
<g mask="url(#mask0_2_39)">
<path id="Vector_4" d="M22.99 34.6481L23.8638 34.1618C23.7464 33.9508 23.5566 33.7894 23.3294 33.7075L22.99 34.6481ZM25.1303 30.0727L24.4327 30.7893C24.821 31.1672 25.4395 31.1672 25.8278 30.7893L25.1303 30.0727ZM27.5214 48.6314C40.0638 48.6314 50.0428 38.7614 50.0428 26.8157H48.0428C48.0428 37.6099 39.0068 46.6314 27.5214 46.6314V48.6314ZM5 26.8157C5 38.7614 14.979 48.6314 27.5214 48.6314V46.6314C16.036 46.6314 7 37.6099 7 26.8157H5ZM27.5214 5C14.979 5 5 14.87 5 26.8157H7C7 16.0215 16.036 7 27.5214 7V5ZM50.0428 26.8157C50.0428 14.87 40.0638 5 27.5214 5V7C39.0068 7 48.0428 16.0215 48.0428 26.8157H50.0428ZM27.5214 53.6314C42.6954 53.6314 55.0428 41.6508 55.0428 26.8157H53.0428C53.0428 40.4958 41.642 51.6314 27.5214 51.6314V53.6314ZM0 26.8157C0 41.6508 12.3473 53.6314 27.5214 53.6314V51.6314C13.4007 51.6314 2 40.4958 2 26.8157H0ZM27.5214 0C12.3473 0 0 11.9805 0 26.8157H2C2 13.1356 13.4007 2 27.5214 2V0ZM55.0428 26.8157C55.0428 11.9805 42.6954 0 27.5214 0V2C41.642 2 53.0428 13.1356 53.0428 26.8157H55.0428ZM22.1162 35.1344C22.2772 35.4236 22.4823 35.6935 22.7298 35.9345L24.1248 34.5013C24.017 34.3964 23.9306 34.2818 23.8638 34.1618L22.1162 35.1344ZM21.3834 34.7961C21.755 35.1578 22.1891 35.4222 22.6506 35.5887L23.3294 33.7075C23.1276 33.6347 22.9397 33.52 22.7784 33.363L21.3834 34.7961ZM13.7253 27.3419L21.3834 34.7961L22.7784 33.363L15.1204 25.9087L13.7253 27.3419ZM13.7253 22.4212C12.3326 23.7768 12.3326 25.9862 13.7253 27.3419L15.1204 25.9087C14.5343 25.3382 14.5343 24.4248 15.1204 23.8543L13.7253 22.4212ZM18.7032 22.4212C17.3256 21.0802 15.103 21.0802 13.7253 22.4212L15.1204 23.8543C15.7215 23.2692 16.7071 23.2692 17.3082 23.8543L18.7032 22.4212ZM25.8278 29.3561L18.7032 22.4212L17.3082 23.8543L24.4327 30.7893L25.8278 29.3561ZM36.6501 17.4638L24.4327 29.3561L25.8278 30.7893L38.0452 18.897L36.6501 17.4638ZM41.628 17.4638C40.2504 16.1229 38.0278 16.1229 36.6501 17.4638L38.0452 18.897C38.6463 18.3118 39.6319 18.3118 40.233 18.897L41.628 17.4638ZM41.628 22.3845C43.0207 21.0289 43.0207 18.8195 41.628 17.4638L40.233 18.897C40.8191 19.4674 40.8191 20.3809 40.233 20.9514L41.628 22.3845ZM27.7077 35.9345L41.628 22.3845L40.233 20.9514L26.3127 34.5013L27.7077 35.9345ZM22.7298 35.9345C24.1074 37.2754 26.3301 37.2754 27.7077 35.9345L26.3127 34.5013C25.7115 35.0865 24.726 35.0865 24.1248 34.5013L22.7298 35.9345Z" fill="#7A38AD" fill-opacity="0.53"/>
</g>
</g>
</g>
<defs>
<clipPath id="clip0_2_39">
<rect width="56" height="54" fill="white"/>
</clipPath>
</defs>
</svg>
