<svg width="89" height="53" viewBox="0 0 89 53" fill="none" xmlns="http://www.w3.org/2000/svg">
<g id="Frame">
<path id="Vector" d="M7.2215 14.6443L7.22631 26.8243C7.22679 28.0423 7.52683 28.9801 8.12642 29.6376C8.72601 30.2952 9.60581 30.6242 10.7658 30.6246C11.9258 30.6251 12.815 30.2968 13.4334 29.6397C14.0518 28.9826 14.3608 28.045 14.3603 26.827L14.3555 14.647L19.3145 14.6489L19.3193 26.7999C19.32 28.6172 18.934 30.1541 18.1611 31.4105C17.3883 32.6668 16.3447 33.6138 15.0302 34.2513C13.7352 34.8888 12.2853 35.2072 10.6806 35.2066C9.07595 35.206 7.6355 34.8961 6.35925 34.277C5.10233 33.6385 4.10629 32.6908 3.37113 31.4338C2.63596 30.1575 2.26802 28.6107 2.2673 26.7934L2.2625 14.6424L7.2215 14.6443ZM28.9095 21.4746C30.4775 21.4752 31.7257 21.9876 32.6541 23.012C33.5985 24.0203 34.071 25.4125 34.0717 27.1885L34.0748 35.0125L29.9948 35.011L29.9919 27.739C29.9916 26.843 29.7593 26.1469 29.2951 25.6507C28.8309 25.1545 28.2068 24.9063 27.4228 24.906C26.6388 24.9057 26.0149 25.1535 25.5511 25.6493C25.0873 26.1451 24.8556 26.841 24.8559 27.737L24.8588 35.009L20.7548 35.0074L20.7495 21.6154L24.8535 21.617L24.8542 23.393C25.27 22.8012 25.8298 22.3374 26.5337 22.0017C27.2375 21.6499 28.0295 21.4742 28.9095 21.4746ZM37.5448 20.2298C36.8248 20.2296 36.2328 20.0213 35.7686 19.6052C35.3204 19.173 35.0962 18.6449 35.096 18.0209C35.0957 17.3809 35.3195 16.853 35.7673 16.4372C36.2312 16.0054 36.8231 15.7896 37.5431 15.7899C38.2471 15.7901 38.8232 16.0063 39.2713 16.4385C39.7355 16.8547 39.9677 17.3828 39.968 18.0228C39.9682 18.6468 39.7364 19.1747 39.2726 19.6065C38.8248 20.0223 38.2488 20.2301 37.5448 20.2298ZM39.5854 21.6226L39.5907 35.0146L35.4867 35.0131L35.4814 21.6211L39.5854 21.6226Z" fill="black"/>
<path id="Vector_2" d="M57.185 15.3653L57.1866 19.2013L51.9786 19.1994L51.9848 35.0194L47.1968 35.0175L47.1906 19.1975L41.9826 19.1955L41.981 15.3595L57.185 15.3653ZM63.256 15.3677L63.2638 35.0236L58.4758 35.0218L58.468 15.3658L63.256 15.3677Z" fill="#F56716"/>
<path id="Vector_3" d="M7.22151 14.6443L7.47151 14.6444L7.47141 14.3944L7.22141 14.3943L7.22151 14.6443ZM14.3555 14.647L14.3554 14.397L14.1054 14.3969L14.1055 14.6469L14.3555 14.647ZM19.3145 14.6489L19.5645 14.649L19.5644 14.399L19.3144 14.3989L19.3145 14.6489ZM15.0302 34.2513L14.921 34.0263L14.9197 34.027L15.0302 34.2513ZM6.35926 34.277L6.24616 34.4999L6.25028 34.5019L6.35926 34.277ZM3.37114 31.4338L3.15453 31.5585L3.15537 31.5599L3.37114 31.4338ZM2.26251 14.6424L2.26241 14.3924L2.01241 14.3923L2.01251 14.6423L2.26251 14.6424ZM6.97151 14.6442L6.97632 26.8242L7.47632 26.8244L7.47151 14.6444L6.97151 14.6442ZM6.97632 26.8242C6.97682 28.0813 7.28677 29.0877 7.94176 29.806L8.3111 29.4693C7.76691 28.8725 7.47679 28.0033 7.47632 26.8244L6.97632 26.8242ZM7.94176 29.806C8.60209 30.5302 9.5582 30.8742 10.7659 30.8746L10.7657 30.3746C9.65344 30.3742 8.84996 30.0602 8.3111 29.4693L7.94176 29.806ZM10.7659 30.8746C11.9741 30.8751 12.9374 30.5317 13.6155 29.8111L13.2513 29.4682C12.6927 30.0618 11.8775 30.3751 10.7657 30.3746L10.7659 30.8746ZM13.6155 29.8111C14.291 29.0934 14.6108 28.0861 14.6103 26.8271L14.1103 26.8269C14.1108 28.0039 13.8127 28.8717 13.2513 29.4682L13.6155 29.8111ZM14.6103 26.8271L14.6055 14.6471L14.1055 14.6469L14.1103 26.8269L14.6103 26.8271ZM14.3556 14.897L19.3146 14.8989L19.3144 14.3989L14.3554 14.397L14.3556 14.897ZM19.0645 14.6488L19.0693 26.7998L19.5693 26.8L19.5645 14.649L19.0645 14.6488ZM19.0693 26.7998C19.07 28.5816 18.6917 30.0706 17.9482 31.2794L18.3741 31.5416C19.1762 30.2376 19.57 28.6529 19.5693 26.8L19.0693 26.7998ZM17.9482 31.2794C17.2 32.4956 16.1922 33.4098 14.921 34.0263L15.1395 34.4762C16.4971 33.8177 17.5766 32.838 18.3741 31.5416L17.9482 31.2794ZM14.9197 34.027C13.6626 34.6457 12.2512 34.9572 10.6805 34.9566L10.6807 35.4566C12.3194 35.4572 13.8077 35.1318 15.1408 34.4756L14.9197 34.027ZM10.6805 34.9566C9.10865 34.956 7.70625 34.6527 6.46824 34.0521L6.25028 34.5019C7.56476 35.1396 9.04328 35.456 10.6807 35.4566L10.6805 34.9566ZM6.47235 34.0541C5.25969 33.4381 4.29868 32.5247 3.58692 31.3077L3.15537 31.5599C3.91393 32.8569 4.94498 33.839 6.24616 34.4999L6.47235 34.0541ZM3.58775 31.3092C2.87901 30.0788 2.51801 28.5772 2.51731 26.7935L2.01731 26.7933C2.01804 28.6443 2.39293 30.2363 3.15453 31.5585L3.58775 31.3092ZM2.51731 26.7935L2.51251 14.6425L2.01251 14.6423L2.01731 26.7933L2.51731 26.7935ZM2.26261 14.8924L7.22161 14.8943L7.22141 14.3943L2.26241 14.3924L2.26261 14.8924ZM32.6541 23.012L32.4689 23.1798L32.4717 23.1828L32.6541 23.012ZM34.0748 35.0125L34.0749 35.2625L34.3249 35.2626L34.3248 35.0126L34.0748 35.0125ZM29.9948 35.011L29.7448 35.0109L29.7449 35.2609L29.9949 35.261L29.9948 35.011ZM24.8588 35.009L24.8589 35.259L25.1089 35.2591L25.1088 35.0091L24.8588 35.009ZM20.7548 35.0074H20.5048L20.5049 35.2574H20.7549L20.7548 35.0074ZM20.7495 21.6154L20.7494 21.3654H20.4994L20.4995 21.6154H20.7495ZM24.8535 21.617L25.1035 21.6171L25.1034 21.3671L24.8534 21.367L24.8535 21.617ZM24.8542 23.393L24.6042 23.3929L24.6045 24.1835L25.0588 23.5368L24.8542 23.393ZM26.5337 22.0017L26.6415 22.2274L26.6456 22.2253L26.5337 22.0017ZM28.9096 21.7246C30.4175 21.7251 31.5945 22.2151 32.4689 23.1798L32.8392 22.8442C31.8568 21.7602 30.5374 21.2252 28.9094 21.2246L28.9096 21.7246ZM32.4717 23.1828C33.3613 24.1327 33.821 25.4571 33.8217 27.1884L34.3217 27.1886C34.321 25.368 33.8356 23.908 32.8365 22.8412L32.4717 23.1828ZM33.8217 27.1884L33.8248 35.0124L34.3248 35.0126L34.3217 27.1886L33.8217 27.1884ZM34.0747 34.7625L29.9947 34.761L29.9949 35.261L34.0749 35.2625L34.0747 34.7625ZM30.2448 35.0111L30.2419 27.7391L29.7419 27.7389L29.7448 35.0109L30.2448 35.0111ZM30.2419 27.7391C30.2416 26.8004 29.9975 26.0357 29.4776 25.48L29.1126 25.8214C29.5211 26.258 29.7416 26.8855 29.7419 27.7389L30.2419 27.7391ZM29.4776 25.48C28.9587 24.9253 28.2642 24.6563 27.4227 24.656L27.4229 25.156C28.1494 25.1563 28.7031 25.3837 29.1126 25.8214L29.4776 25.48ZM27.4227 24.656C26.5812 24.6557 25.887 24.9241 25.3685 25.4784L25.7337 25.8201C26.1429 25.3828 26.6964 25.1557 27.4229 25.156L27.4227 24.656ZM25.3685 25.4784C24.849 26.0338 24.6056 26.7983 24.6059 27.7369L25.1059 27.7371C25.1056 26.8837 25.3256 26.2564 25.7337 25.8201L25.3685 25.4784ZM24.6059 27.7369L24.6088 35.0089L25.1088 35.0091L25.1059 27.7371L24.6059 27.7369ZM24.8587 34.759L20.7547 34.7574L20.7549 35.2574L24.8589 35.259L24.8587 34.759ZM21.0048 35.0075L20.9995 21.6155L20.4995 21.6154L20.5048 35.0074L21.0048 35.0075ZM20.7496 21.8654L24.8536 21.867L24.8534 21.367L20.7494 21.3654L20.7496 21.8654ZM24.6035 21.6169L24.6042 23.3929L25.1042 23.3931L25.1035 21.6171L24.6035 21.6169ZM25.0588 23.5368C25.448 22.9829 25.9733 22.5461 26.6415 22.2274L26.4259 21.776C25.6864 22.1287 25.092 22.6195 24.6496 23.2492L25.0588 23.5368ZM26.6456 22.2253C27.3108 21.8929 28.0637 21.7242 28.9096 21.7246L28.9094 21.2246C27.9952 21.2242 27.1643 21.407 26.4218 21.778L26.6456 22.2253ZM35.7686 19.6052L35.595 19.7852L35.6018 19.7913L35.7686 19.6052ZM39.2713 16.4385L39.0978 16.6185L39.1045 16.6246L39.2713 16.4385ZM39.5854 21.6226L39.8354 21.6227L39.8353 21.3727L39.5853 21.3726L39.5854 21.6226ZM39.5907 35.0146L39.5908 35.2646L39.8408 35.2647L39.8407 35.0147L39.5907 35.0146ZM35.4867 35.0131L35.2367 35.013L35.2368 35.263L35.4868 35.2631L35.4867 35.0131ZM35.4814 21.6211L35.4813 21.3711L35.2313 21.371L35.2314 21.621L35.4814 21.6211ZM37.5447 19.9799C36.8761 19.9796 36.3466 19.7878 35.9354 19.4191L35.6018 19.7913C36.1189 20.2549 36.7735 20.4796 37.5449 20.4799L37.5447 19.9799ZM35.9421 19.4253C35.5429 19.0404 35.3462 18.5773 35.346 18.021L34.846 18.0208C34.8462 18.7125 35.0978 19.3057 35.595 19.7852L35.9421 19.4253ZM35.346 18.021C35.3457 17.4469 35.5432 16.9865 35.9375 16.6204L35.5972 16.2539C35.0958 16.7195 34.8457 17.315 34.846 18.0208L35.346 18.021ZM35.9375 16.6204C36.3487 16.2376 36.8772 16.0396 37.5432 16.0399L37.543 15.5399C36.769 15.5396 36.1136 15.7731 35.5972 16.2539L35.9375 16.6204ZM37.5432 16.0399C38.1917 16.0401 38.7025 16.2373 39.0978 16.6185L39.4448 16.2586C38.9438 15.7755 38.3025 15.5401 37.543 15.5399L37.5432 16.0399ZM39.1045 16.6246C39.5142 16.9919 39.7177 17.4515 39.718 18.0227L40.218 18.0229C40.2177 17.314 39.9568 16.7175 39.4382 16.2524L39.1045 16.6246ZM39.718 18.0227C39.7182 18.576 39.5161 19.0381 39.1022 19.4235L39.4428 19.7898C39.9565 19.3116 40.2182 18.7175 40.218 18.0229L39.718 18.0227ZM39.1022 19.4235C38.7076 19.79 38.1959 19.9801 37.5447 19.9799L37.5449 20.4799C38.3018 20.4801 38.9417 20.255 39.4428 19.7898L39.1022 19.4235ZM39.3354 21.6225L39.3407 35.0145L39.8407 35.0147L39.8354 21.6227L39.3354 21.6225ZM39.5906 34.7646L35.4866 34.7631L35.4868 35.2631L39.5908 35.2646L39.5906 34.7646ZM35.7367 35.0132L35.7314 21.6212L35.2314 21.621L35.2367 35.013L35.7367 35.0132ZM35.4815 21.8711L39.5855 21.8726L39.5853 21.3726L35.4813 21.3711L35.4815 21.8711ZM57.185 15.3653L57.435 15.3654L57.4349 15.1154L57.1849 15.1153L57.185 15.3653ZM57.1866 19.2013L57.1867 19.4513L57.4367 19.4514L57.4366 19.2014L57.1866 19.2013ZM51.9786 19.1994L51.9785 18.9494L51.7285 18.9493L51.7286 19.1993L51.9786 19.1994ZM51.9848 35.0194L51.9849 35.2694H52.2349L52.2348 35.0194H51.9848ZM47.1968 35.0175L46.9468 35.0174L46.9469 35.2674L47.1969 35.2675L47.1968 35.0175ZM47.1906 19.1975L47.4406 19.1976L47.4405 18.9476L47.1905 18.9475L47.1906 19.1975ZM41.9826 19.1955L41.7326 19.1954L41.7327 19.4454L41.9827 19.4455L41.9826 19.1955ZM41.981 15.3595L41.9809 15.1095L41.7309 15.1094L41.731 15.3594L41.981 15.3595ZM56.935 15.3652L56.9366 19.2012L57.4366 19.2014L57.435 15.3654L56.935 15.3652ZM57.1865 18.9513L51.9785 18.9494L51.9787 19.4494L57.1867 19.4513L57.1865 18.9513ZM51.7286 19.1993L51.7348 35.0193L52.2348 35.0194L52.2286 19.1994L51.7286 19.1993ZM51.9847 34.7694L47.1967 34.7675L47.1969 35.2675L51.9849 35.2694L51.9847 34.7694ZM47.4468 35.0176L47.4406 19.1976L46.9406 19.1974L46.9468 35.0174L47.4468 35.0176ZM47.1905 18.9475L41.9825 18.9455L41.9827 19.4455L47.1907 19.4475L47.1905 18.9475ZM42.2326 19.1956L42.231 15.3596L41.731 15.3594L41.7326 19.1954L42.2326 19.1956ZM41.9811 15.6095L57.1851 15.6153L57.1849 15.1153L41.9809 15.1095L41.9811 15.6095ZM63.256 15.3677H63.506L63.5059 15.1177H63.2559L63.256 15.3677ZM63.2638 35.0236L63.2639 35.2736L63.5139 35.2737L63.5138 35.0237L63.2638 35.0236ZM58.4758 35.0218L58.2258 35.0217L58.2259 35.2717L58.4759 35.2718L58.4758 35.0218ZM58.468 15.3658L58.4679 15.1158L58.2179 15.1157L58.218 15.3657L58.468 15.3658ZM63.006 15.3676L63.0138 35.0236L63.5138 35.0237L63.506 15.3677L63.006 15.3676ZM63.2637 34.7736L58.4757 34.7718L58.4759 35.2718L63.2639 35.2736L63.2637 34.7736ZM58.7258 35.0219L58.718 15.3659L58.218 15.3657L58.2258 35.0217L58.7258 35.0219ZM58.4681 15.6158L63.2561 15.6177L63.2559 15.1177L58.4679 15.1158L58.4681 15.6158Z" fill="#7964AC"/>
<path id="Vector_4" d="M70.9036 20.896C68.915 20.8742 67.3179 19.4896 67.3364 17.8033C67.3549 16.1171 68.982 14.7678 70.9706 14.7896C72.9592 14.8114 74.5562 16.1961 74.5377 17.8823C74.5192 19.5686 72.8922 20.9179 70.9036 20.896Z" stroke="#7A38AD" stroke-opacity="0.9" stroke-width="1.5" stroke-linecap="round" stroke-linejoin="round"/>
<path id="Vector_5" d="M71.3248 7.74674C69.4892 7.72661 68.015 6.44847 68.032 4.89193C68.0491 3.3354 69.551 2.0899 71.3866 2.11003C73.2223 2.13016 74.6965 3.4083 74.6794 4.96484C74.6623 6.52137 73.1604 7.76687 71.3248 7.74674Z" stroke="#7A38AD" stroke-opacity="0.9" stroke-width="1.5" stroke-linecap="round" stroke-linejoin="round"/>
<path id="Vector_6" d="M55.8142 7.57682C53.9786 7.55669 52.5044 6.27855 52.5214 4.72201C52.5385 3.16548 54.0404 1.91998 55.876 1.94011C57.7117 1.96024 59.1859 3.23838 59.1688 4.79492C59.1518 6.35145 57.6498 7.59695 55.8142 7.57682Z" stroke="#7A38AD" stroke-opacity="0.9" stroke-width="1.5" stroke-linecap="round" stroke-linejoin="round"/>
<g id="Group" opacity="0.4">
<path id="Vector_7" d="M71.2527 14.3227L71.3248 7.74658" stroke="#7A38AD" stroke-opacity="0.9" stroke-width="1.5" stroke-linecap="round" stroke-linejoin="round"/>
<path id="Vector_8" d="M71.1088 14.321C70.6283 12.6715 68.869 11.4308 66.775 11.4172L62.9748 11.3849C60.072 11.3625 57.6187 9.75711 56.7343 7.54883" stroke="#7A38AD" stroke-opacity="0.9" stroke-width="1.5" stroke-linecap="round" stroke-linejoin="round"/>
</g>
</g>
</svg>
