<svg width="75" height="32" viewBox="0 0 75 32" fill="none" xmlns="http://www.w3.org/2000/svg">
<g id="Frame">
<path id="Vector" d="M5.51999 13.152V23.232C5.51999 24.24 5.76799 25.016 6.26399 25.56C6.75998 26.104 7.48799 26.376 8.44799 26.376C9.40799 26.376 10.144 26.104 10.656 25.56C11.168 25.016 11.424 24.24 11.424 23.232V13.152H15.528V23.208C15.528 24.712 15.208 25.984 14.568 27.024C13.928 28.064 13.064 28.848 11.976 29.376C10.904 29.904 9.70399 30.168 8.37599 30.168C7.04799 30.168 5.85599 29.912 4.79999 29.4C3.75999 28.872 2.93599 28.088 2.32799 27.048C1.71999 25.992 1.41599 24.712 1.41599 23.208V13.152H5.51999ZM26.5699 16.464C28.1379 16.464 29.3859 16.976 30.3139 18C31.2579 19.008 31.7299 20.4 31.7299 22.176V30H27.6499V22.728C27.6499 21.832 27.4179 21.136 26.9539 20.64C26.4899 20.144 25.8659 19.896 25.0819 19.896C24.2979 19.896 23.6739 20.144 23.2099 20.64C22.7459 21.136 22.5139 21.832 22.5139 22.728V30H18.4099V16.608H22.5139V18.384C22.9299 17.792 23.4899 17.328 24.1939 16.992C24.8979 16.64 25.6899 16.464 26.5699 16.464ZM36.6458 15.216C35.9258 15.216 35.3338 15.008 34.8698 14.592C34.4218 14.16 34.1978 13.632 34.1978 13.008C34.1978 12.368 34.4218 11.84 34.8698 11.424C35.3338 10.992 35.9258 10.776 36.6458 10.776C37.3498 10.776 37.9258 10.992 38.3738 11.424C38.8378 11.84 39.0698 12.368 39.0698 13.008C39.0698 13.632 38.8378 14.16 38.3738 14.592C37.9258 15.008 37.3498 15.216 36.6458 15.216ZM38.6858 16.608V30H34.5818V16.608H38.6858Z" fill="black"/>
<path id="Vector_2" d="M53.7799 13.152V16.44H49.3159V30H45.2119V16.44H40.7479V13.152H53.7799ZM59.9436 13.152V30H55.8396V13.152H59.9436Z" fill="#F56716"/>
<path id="Vector_3" d="M5.51999 13.152H5.76999V12.902H5.51999V13.152ZM11.424 13.152V12.902H11.174V13.152H11.424ZM15.528 13.152H15.778V12.902H15.528V13.152ZM11.976 29.376L11.8668 29.1511L11.8655 29.1517L11.976 29.376ZM4.79999 29.4L4.6868 29.6229L4.69092 29.6249L4.79999 29.4ZM2.32799 27.048L2.11133 27.1727L2.11217 27.1742L2.32799 27.048ZM1.41599 13.152V12.902H1.16599V13.152H1.41599ZM5.26999 13.152V23.232H5.76999V13.152H5.26999ZM5.26999 23.232C5.26999 24.2791 5.52787 25.1237 6.07925 25.7284L6.44873 25.3915C6.0081 24.9083 5.76999 24.2009 5.76999 23.232H5.26999ZM6.07925 25.7284C6.63595 26.339 7.44027 26.626 8.44799 26.626V26.126C7.53571 26.126 6.88402 25.869 6.44873 25.3915L6.07925 25.7284ZM8.44799 26.626C9.45615 26.626 10.2662 26.3389 10.8381 25.7313L10.474 25.3886C10.0218 25.8691 9.35982 26.126 8.44799 26.126V26.626ZM10.8381 25.7313C11.4071 25.1267 11.674 24.281 11.674 23.232H11.174C11.174 24.199 10.9289 24.9052 10.474 25.3886L10.8381 25.7313ZM11.674 23.232V13.152H11.174V23.232H11.674ZM11.424 13.402H15.528V12.902H11.424V13.402ZM15.278 13.152V23.208H15.778V13.152H15.278ZM15.278 23.208C15.278 24.6764 14.9658 25.9006 14.3551 26.893L14.7809 27.155C15.4502 26.0674 15.778 24.7476 15.778 23.208H15.278ZM14.3551 26.893C13.7398 27.8928 12.9115 28.6441 11.8668 29.1511L12.0851 29.6009C13.2164 29.0519 14.1162 28.2351 14.7809 27.155L14.3551 26.893ZM11.8655 29.1517C10.8316 29.661 9.67 29.918 8.37599 29.918V30.418C9.73798 30.418 10.9764 30.147 12.0865 29.6003L11.8655 29.1517ZM8.37599 29.918C7.08077 29.918 5.92683 29.6685 4.90906 29.175L4.69092 29.6249C5.78515 30.1555 7.01521 30.418 8.37599 30.418V29.918ZM4.91316 29.1771C3.91742 28.6715 3.12843 27.9218 2.54381 26.9218L2.11217 27.1742C2.74355 28.2542 3.60254 29.0724 4.6868 29.6229L4.91316 29.1771ZM2.54465 26.9232C1.96306 25.9131 1.66599 24.6784 1.66599 23.208H1.16599C1.16599 24.7456 1.47692 26.0708 2.11133 27.1727L2.54465 26.9232ZM1.66599 23.208V13.152H1.16599V23.208H1.66599ZM1.41599 13.402H5.51999V12.902H1.41599V13.402ZM30.3139 18L30.1286 18.1679L30.1314 18.1709L30.3139 18ZM31.7299 30V30.25H31.9799V30H31.7299ZM27.6499 30H27.3999V30.25H27.6499V30ZM22.5139 30V30.25H22.7639V30H22.5139ZM18.4099 30H18.1599V30.25H18.4099V30ZM18.4099 16.608V16.358H18.1599V16.608H18.4099ZM22.5139 16.608H22.7639V16.358H22.5139V16.608ZM22.5139 18.384H22.2639V19.1746L22.7184 18.5277L22.5139 18.384ZM24.1939 16.992L24.3016 17.2176L24.3057 17.2156L24.1939 16.992ZM26.5699 16.714C28.0778 16.714 29.2546 17.2035 30.1286 18.1679L30.4991 17.8321C29.5171 16.7485 28.1979 16.214 26.5699 16.214V16.714ZM30.1314 18.1709C31.0207 19.1204 31.4799 20.4447 31.4799 22.176H31.9799C31.9799 20.3553 31.4951 18.8955 30.4964 17.8291L30.1314 18.1709ZM31.4799 22.176V30H31.9799V22.176H31.4799ZM31.7299 29.75H27.6499V30.25H31.7299V29.75ZM27.8999 30V22.728H27.3999V30H27.8999ZM27.8999 22.728C27.8999 21.7893 27.6561 21.0247 27.1364 20.4692L26.7713 20.8108C27.1796 21.2472 27.3999 21.8746 27.3999 22.728H27.8999ZM27.1364 20.4692C26.6177 19.9147 25.9234 19.646 25.0819 19.646V20.146C25.8084 20.146 26.362 20.3733 26.7713 20.8108L27.1364 20.4692ZM25.0819 19.646C24.2404 19.646 23.546 19.9147 23.0273 20.4692L23.3924 20.8108C23.8017 20.3733 24.3554 20.146 25.0819 20.146V19.646ZM23.0273 20.4692C22.5076 21.0247 22.2639 21.7893 22.2639 22.728H22.7639C22.7639 21.8746 22.9841 21.2472 23.3924 20.8108L23.0273 20.4692ZM22.2639 22.728V30H22.7639V22.728H22.2639ZM22.5139 29.75H18.4099V30.25H22.5139V29.75ZM18.6599 30V16.608H18.1599V30H18.6599ZM18.4099 16.858H22.5139V16.358H18.4099V16.858ZM22.2639 16.608V18.384H22.7639V16.608H22.2639ZM22.7184 18.5277C23.1078 17.9736 23.6332 17.5366 24.3016 17.2176L24.0862 16.7664C23.3465 17.1194 22.752 17.6104 22.3093 18.2403L22.7184 18.5277ZM24.3057 17.2156C24.971 16.8829 25.7241 16.714 26.5699 16.714V16.214C25.6557 16.214 24.8247 16.3971 24.0821 16.7684L24.3057 17.2156ZM34.8698 14.592L34.6961 14.7721L34.7029 14.7781L34.8698 14.592ZM38.3738 11.424L38.2001 11.6041L38.2069 11.6101L38.3738 11.424ZM38.6858 16.608H38.9358V16.358H38.6858V16.608ZM38.6858 30V30.25H38.9358V30H38.6858ZM34.5818 30H34.3318V30.25H34.5818V30ZM34.5818 16.608V16.358H34.3318V16.608H34.5818ZM36.6458 14.966C35.9772 14.966 35.4477 14.7744 35.0366 14.4058L34.7029 14.7781C35.2198 15.2416 35.8743 15.466 36.6458 15.466V14.966ZM35.0433 14.412C34.6443 14.0273 34.4478 13.5643 34.4478 13.008H33.9478C33.9478 13.6997 34.1991 14.2929 34.6961 14.7721L35.0433 14.412ZM34.4478 13.008C34.4478 12.4338 34.6454 11.9734 35.0399 11.6072L34.6996 11.2408C34.1981 11.7065 33.9478 12.3021 33.9478 13.008H34.4478ZM35.0399 11.6072C35.4513 11.2241 35.9797 11.026 36.6458 11.026V10.526C35.8718 10.526 35.2162 10.7598 34.6996 11.2408L35.0399 11.6072ZM36.6458 11.026C37.2942 11.026 37.8049 11.2231 38.2001 11.6041L38.5473 11.244C38.0465 10.7611 37.4053 10.526 36.6458 10.526V11.026ZM38.2069 11.6101C38.6164 11.9773 38.8198 12.4368 38.8198 13.008H39.3198C39.3198 12.2991 39.0591 11.7027 38.5406 11.2378L38.2069 11.6101ZM38.8198 13.008C38.8198 13.5613 38.6175 14.0234 38.2034 14.409L38.5439 14.7752C39.0578 14.2967 39.3198 13.7026 39.3198 13.008H38.8198ZM38.2034 14.409C37.8087 14.7756 37.2969 14.966 36.6458 14.966V15.466C37.4026 15.466 38.0426 15.2406 38.5439 14.7752L38.2034 14.409ZM38.4358 16.608V30H38.9358V16.608H38.4358ZM38.6858 29.75H34.5818V30.25H38.6858V29.75ZM34.8318 30V16.608H34.3318V30H34.8318ZM34.5818 16.858H38.6858V16.358H34.5818V16.858ZM53.7799 13.152H54.0299V12.902H53.7799V13.152ZM53.7799 16.44V16.69H54.0299V16.44H53.7799ZM49.3159 16.44V16.19H49.0659V16.44H49.3159ZM49.3159 30V30.25H49.5659V30H49.3159ZM45.2119 30H44.9619V30.25H45.2119V30ZM45.2119 16.44H45.4619V16.19H45.2119V16.44ZM40.7479 16.44H40.4979V16.69H40.7479V16.44ZM40.7479 13.152V12.902H40.4979V13.152H40.7479ZM53.5299 13.152V16.44H54.0299V13.152H53.5299ZM53.7799 16.19H49.3159V16.69H53.7799V16.19ZM49.0659 16.44V30H49.5659V16.44H49.0659ZM49.3159 29.75H45.2119V30.25H49.3159V29.75ZM45.4619 30V16.44H44.9619V30H45.4619ZM45.2119 16.19H40.7479V16.69H45.2119V16.19ZM40.9979 16.44V13.152H40.4979V16.44H40.9979ZM40.7479 13.402H53.7799V12.902H40.7479V13.402ZM59.9436 13.152H60.1936V12.902H59.9436V13.152ZM59.9436 30V30.25H60.1936V30H59.9436ZM55.8396 30H55.5896V30.25H55.8396V30ZM55.8396 13.152V12.902H55.5896V13.152H55.8396ZM59.6936 13.152V30H60.1936V13.152H59.6936ZM59.9436 29.75H55.8396V30.25H59.9436V29.75ZM56.0896 30V13.152H55.5896V30H56.0896ZM55.8396 13.402H59.9436V12.902H55.8396V13.402Z" fill="#F56716"/>
<path id="Vector_4" d="M68.8833 16.7975C67.1265 16.7829 65.7183 15.6702 65.7379 14.3122C65.7576 12.9542 67.1977 11.8651 68.9545 11.8797C70.7113 11.8943 72.1196 13.0071 72.0999 14.3651C72.0803 15.7231 70.6402 16.8122 68.8833 16.7975Z" stroke="#7A38AD" stroke-opacity="0.9" stroke-width="1.5" stroke-linecap="round" stroke-linejoin="round"/>
<path id="Vector_5" d="M69.2812 6.20716C67.6596 6.19368 66.3596 5.16654 66.3778 3.91298C66.3959 2.65942 67.7252 1.65415 69.3469 1.66763C70.9686 1.68111 72.2685 2.70825 72.2504 3.96181C72.2322 5.21537 70.9029 6.22065 69.2812 6.20716Z" stroke="#7A38AD" stroke-opacity="0.9" stroke-width="1.5" stroke-linecap="round" stroke-linejoin="round"/>
<path id="Vector_6" d="M55.5785 6.09347C53.9568 6.07999 52.6569 5.05285 52.675 3.79929C52.6932 2.54574 54.0225 1.54046 55.6442 1.55394C57.2659 1.56743 58.5658 2.59457 58.5477 3.84812C58.5295 5.10168 57.2002 6.10696 55.5785 6.09347Z" stroke="#7A38AD" stroke-opacity="0.9" stroke-width="1.5" stroke-linecap="round" stroke-linejoin="round"/>
<g id="Group" opacity="0.4">
<path id="Vector_7" d="M69.2046 11.5034L69.2812 6.20731" stroke="#7A38AD" stroke-opacity="0.9" stroke-width="1.5" stroke-linecap="round" stroke-linejoin="round"/>
<path id="Vector_8" d="M69.0775 11.5024C68.6562 10.1747 67.1044 9.17807 65.2544 9.17025L61.8972 9.14991C59.3327 9.13616 57.1684 7.84693 56.3914 6.06984" stroke="#7A38AD" stroke-opacity="0.9" stroke-width="1.5" stroke-linecap="round" stroke-linejoin="round"/>
</g>
</g>
</svg>
